<?xml version="1.0" encoding="utf-8"?>
<!-- Generator: Adobe Illustrator 19.2.0, SVG Export Plug-In . SVG Version: 6.00 Build 0)  -->
<svg width="60px" height="60px" version="1.1" id="target" xmlns="http://www.w3.org/2000/svg" xmlns:xlink="http://www.w3.org/1999/xlink" x="0px" y="0px"
	 viewBox="0 0 51.6016 58.0005" enable-background="new 0 0 51.6016 58.0005" xml:space="preserve">
<path fill="#11b4f0" d="M50.6016,44h-4.5625c-0.1683,0-0.3195,0.052-0.4586,0.1252l-2.1622-2.2412C47.5024,37.4325,50,31.5032,50,25
	C50,11.2148,38.7852,0,25,0S0,11.2148,0,25c0,11.0046,7.1501,20.3643,17.0461,23.6952l-2.9827,7.9537
	c-0.1934,0.5171,0.0684,1.0933,0.585,1.2876c0.1162,0.043,0.2344,0.064,0.3516,0.064c0.4043,0,0.7861-0.248,0.9365-0.6494l3-8
	c0.0117-0.0312,0.0068-0.0634,0.0152-0.095C20.8895,49.7395,22.9146,50,25,50s4.1105-0.2605,6.0483-0.7439
	c0.0084,0.0316,0.0035,0.0637,0.0152,0.095l3,8c0.1504,0.4014,0.5322,0.6494,0.9365,0.6494c0.1172,0,0.2354-0.021,0.3516-0.064
	c0.5166-0.1943,0.7783-0.7705,0.585-1.2876l-2.9827-7.9537c3.4023-1.1451,6.4792-3.0006,9.053-5.3939l2.9805,3.0894l-0.126,3.9058
	c-0.0186,0.5518,0.415,1.0137,0.9668,1.0317c0.0107,0.0005,0.0215,0.0005,0.0332,0.0005c0.5371,0,0.9814-0.4268,0.998-0.9678
	l0.1396-4.3281c0.0004-0.0112-0.0055-0.0215-0.0055-0.0327h3.608c0.5527,0,1-0.4478,1-1S51.1543,44,50.6016,44z"/>
<path fill="#c0ebff" d="M25,48C12.3174,48,2,37.6821,2,25S12.3174,2,25,2s23,10.3179,23,23c0,5.9387-2.2626,11.3589-5.9709,15.444
	l-2.7969-2.899C42.1891,34.1943,44,29.8096,44,25c0-10.4766-8.5234-19-19-19S6,14.5234,6,25s8.5234,19,19,19
	c4.9482,0,9.4461-1.9171,12.8306-5.0276l2.7886,2.8906C36.5143,45.668,31.0256,48,25,48z"/>
<path fill="#c0ebff" d="M35.0605,33.2207C36.8957,30.9788,38,28.1166,38,25c0-7.1685-5.832-13-13-13s-13,5.8315-13,13
	s5.832,13,13,13c3.3325,0,6.3664-1.2712,8.6696-3.3406l2.774,2.8755C33.4195,40.2982,29.4098,42,25,42c-9.374,0-17-7.626-17-17
	S15.626,8,25,8s17,7.626,17,17c0,4.2454-1.5748,8.1226-4.1571,11.1047L35.0605,33.2207z"/>
<path fill="#c0ebff" d="M30.8416,28.8474C31.5719,27.7423,32,26.4209,32,25c0-3.8599-3.1406-7-7-7s-7,3.1401-7,7s3.1406,7,7,7
	c1.7169,0,3.2893-0.624,4.5085-1.6538l2.7741,2.8755C30.3403,34.9442,27.7941,36,25,36c-6.0654,0-11-4.9346-11-11s4.9346-11,11-11
	s11,4.9346,11,11c0,2.5515-0.8809,4.8965-2.3441,6.7646L30.8416,28.8474z"/>
<path fill="#FFFFFF" d="M26.3682,24.2104c-0.3828-0.3975-1.0156-0.4077-1.4141-0.0254c-0.3975,0.3833-0.4092,1.0166-0.0254,1.4141
	l3.1743,3.2903C27.2476,29.5735,26.1779,30,25,30c-2.7568,0-5-2.2432-5-5s2.2432-5,5-5s5,2.2432,5,5
	c0,0.8508-0.2336,1.6406-0.6101,2.3428L26.3682,24.2104z"/>
</svg>
