<?xml version="1.0" encoding="utf-8"?>
<!-- Generator: Adobe Illustrator 19.2.0, SVG Export Plug-In . SVG Version: 6.00 Build 0)  -->
<svg width="60px" height="60px" version="1.1" id="musictext" xmlns="http://www.w3.org/2000/svg" xmlns:xlink="http://www.w3.org/1999/xlink" x="0px" y="0px"
	 viewBox="0 0 49.6853 36.8545" enable-background="new 0 0 49.6853 36.8545" xml:space="preserve">
<g>
	<path fill="#11b4f0" d="M41.4131,2.289c-2.1787-1.4082-3.9424-2.1758-4.0166-2.208c-0.3066-0.1318-0.6641-0.1016-0.9453,0.082
		C36.1699,0.3486,36,0.6621,36,0.999v23.6001c-2.103-1.6252-5.5117-1.9476-8.7358-0.5796
		c-2.0381,0.8652-3.7148,2.2734-4.7207,3.9648c-1.0654,1.791-1.2646,3.6875-0.5635,5.3398
		c0.7021,1.6533,2.2051,2.8262,4.2324,3.3047c0.6436,0.1514,1.3154,0.2256,2.002,0.2256c1.3594,0,2.7754-0.2939,4.1299-0.8682
		c3.6759-1.5601,5.9308-4.8204,5.6552-7.7918c0-0.0009,0.0005-0.0016,0.0005-0.0016V2.6054
		c0.6396,0.3379,1.4502,0.7969,2.3271,1.3633c4.6963,3.0352,9.5908,7.9365,6.2432,14.0537
		c-0.2656,0.4854-0.0879,1.0928,0.3965,1.3574c0.4844,0.2676,1.0928,0.0869,1.3574-0.3965
		C51.5117,13.1582,49.0576,7.2295,41.4131,2.289z"/>
	<path fill="#c0ebff" d="M31.563,34.1445c-1.6504,0.7021-3.3867,0.8906-4.8916,0.5371c-1.3916-0.3281-2.4033-1.0869-2.8496-2.1387
		c-0.4473-1.0518-0.29-2.3076,0.4404-3.5361c0.79-1.3291,2.1338-2.4453,3.7832-3.1455c1.1416-0.4854,2.3047-0.7158,3.377-0.7158
		c2.0264,0,3.7314,0.8242,4.3652,2.3174C36.7574,29.747,34.8619,32.7451,31.563,34.1445z"/>
	<path fill="#11b4f0" d="M1,7.5029h29c0.5527,0,1-0.4473,1-1s-0.4473-1-1-1H1c-0.5527,0-1,0.4473-1,1S0.4473,7.5029,1,7.5029z"/>
	<path fill="#11b4f0" d="M1,12.5029h29c0.5527,0,1-0.4473,1-1s-0.4473-1-1-1H1c-0.5527,0-1,0.4473-1,1S0.4473,12.5029,1,12.5029z"/>
	<path fill="#11b4f0" d="M1,17.5029h29c0.5527,0,1-0.4473,1-1s-0.4473-1-1-1H1c-0.5527,0-1,0.4473-1,1S0.4473,17.5029,1,17.5029z"/>
	<path fill="#11b4f0" d="M1,22.5029h23.0215c0.5527,0,1-0.4473,1-1s-0.4473-1-1-1H1c-0.5527,0-1,0.4473-1,1
		S0.4473,22.5029,1,22.5029z"/>
	<path fill="#11b4f0" d="M18,25.5029H1c-0.5527,0-1,0.4473-1,1s0.4473,1,1,1h17c0.5527,0,1-0.4473,1-1S18.5527,25.5029,18,25.5029z"
		/>
	<path fill="#11b4f0" d="M18,30.5029H1c-0.5527,0-1,0.4473-1,1s0.4473,1,1,1h17c0.5527,0,1-0.4473,1-1S18.5527,30.5029,18,30.5029z"
		/>
</g>
</svg>
