<?xml version="1.0" encoding="utf-8"?>
<!-- Generator: Adobe Illustrator 19.2.0, SVG Export Plug-In . SVG Version: 6.00 Build 0)  -->
<svg width="60px" height="60px" version="1.1" id="headphones" xmlns="http://www.w3.org/2000/svg" xmlns:xlink="http://www.w3.org/1999/xlink" x="0px" y="0px"
	 viewBox="0 0 55.1846 55" enable-background="new 0 0 55.1846 55" xml:space="preserve">
<g>
	<path fill="#11b4f0" d="M18.4629,40.2158l-3.1016-11.5732c-0.4492-1.6787-1.5264-3.082-3.0322-3.9521
		c-1.5049-0.8701-3.2588-1.1006-4.9307-0.6523c-1.6777,0.4492-3.0801,1.5254-3.9473,3.0293
		c-0.782,1.357-1.0409,2.9162-0.7545,4.4418l-1.9555,0.524c-0.5332,0.1426-0.8496,0.6914-0.707,1.2246l3.1055,11.5908
		c0.0684,0.2559,0.2363,0.4746,0.4658,0.6074c0.1533,0.0879,0.3262,0.1338,0.5,0.1338c0.0869,0,0.1738-0.0117,0.2588-0.0342
		l2.1232-0.5689c1.136,2.0958,3.3301,3.4214,5.703,3.4214c0.5547-0.001,1.1182-0.0723,1.6787-0.2227
		C17.3301,47.2578,19.3906,43.6826,18.4629,40.2158z"/>
	<polygon fill="#c0ebff" points="2.2246,33.7061 3.1904,33.4473 4.249,37.3982 5.7781,43.1065 4.8125,43.3652 	"/>
	<path fill="#c0ebff" d="M13.3516,46.2539c-2.3997,0.6385-4.8684-0.7883-5.5139-3.1884l-1.6288-6.0793l-1.4725-5.4969
		c-0.3125-1.165-0.1533-2.3809,0.4473-3.4229c0.6006-1.041,1.5713-1.7852,2.7324-2.0967c0.3857-0.1035,0.7773-0.1543,1.167-0.1543
		c0.7803,0,1.5508,0.2051,2.2461,0.6064c1.043,0.6035,1.7891,1.5752,2.1006,2.7383l3.1016,11.5732
		C17.1738,43.1348,15.7481,45.6113,13.3516,46.2539z"/>
	<path fill="#11b4f0" d="M55.1846,45.708c0-2.426-1.4816-4.6024-3.7044-5.5275l1.8548-6.9227
		c0.1426-0.5332-0.1738-1.082-0.707-1.2246l-1.9555-0.524c0.2864-1.5256,0.0275-3.0848-0.7545-4.4418
		c-0.8672-1.5039-2.2695-2.5801-3.9473-3.0293c-1.6748-0.4482-3.4258-0.2178-4.9307,0.6523
		c-1.5059,0.8701-2.583,2.2734-3.0322,3.9521l-3.1016,11.5732c-0.9277,3.4668,1.1328,7.042,4.5938,7.9697
		c0.5605,0.1504,1.124,0.2227,1.6787,0.2227c2.3729-0.0008,4.5671-1.3259,5.703-3.4214l2.1232,0.5689
		c0.085,0.0225,0.1719,0.0342,0.2588,0.0342c0.1738,0,0.3467-0.0459,0.5-0.1338c0.2295-0.1328,0.3975-0.3516,0.4658-0.6074
		l0.7278-2.7166c1.346,0.669,2.2272,2.0482,2.2272,3.5759c0,0.0518,0.0219,0.0963,0.0294,0.146
		c-0.0076,0.0497-0.0294,0.0942-0.0294,0.146c0,2.2061-1.7939,4-4,4H32.0427c-0.4468-1.7205-1.9981-3-3.8552-3h-6.0059
		c-2.2041,0-3.9971,1.7939-3.9971,4s1.793,4,3.9971,4h6.0059c1.8571,0,3.4083-1.2795,3.8552-3h17.1419c3.3086,0,6-2.6914,6-6
		c0-0.0518-0.0219-0.0963-0.0294-0.146C55.1627,45.8043,55.1846,45.7598,55.1846,45.708z"/>
	<path fill="#c0ebff" d="M40.0176,46.2539c-2.3965-0.6426-3.8223-3.1191-3.1797-5.5205l3.1016-11.5732
		c0.3115-1.1631,1.0576-2.1348,2.1006-2.7383c0.6953-0.4014,1.4658-0.6064,2.2461-0.6064c0.3896,0,0.7812,0.0508,1.167,0.1543
		c1.1611,0.3115,2.1318,1.0557,2.7324,2.0967c0.6006,1.042,0.7598,2.2578,0.4473,3.4229l-1.4725,5.4969l-1.6288,6.0793
		C44.886,45.4655,42.4104,46.8924,40.0176,46.2539z"/>
	<polygon fill="#c0ebff" points="48.5566,43.3652 47.591,43.1065 49.1202,37.3982 50.1787,33.4473 51.1445,33.7061 	"/>
	<path fill="#c0ebff" d="M28.1875,53h-6.0059c-1.1016,0-1.9971-0.8975-1.9971-2s0.8955-2,1.9971-2h6.0059
		c1.1016,0,1.9971,0.8975,1.9971,2S29.2891,53,28.1875,53z"/>
	<path fill="#11b4f0" d="M2.1846,26.5c0.5527,0,1-0.4473,1-1c0-12.958,10.542-23.5,23.5-23.5s23.5,10.542,23.5,23.5
		c0,0.5527,0.4473,1,1,1s1-0.4473,1-1c0-14.0605-11.4395-25.5-25.5-25.5s-25.5,11.4395-25.5,25.5
		C1.1846,26.0527,1.6318,26.5,2.1846,26.5z"/>
</g>
</svg>
